<svg width="100" height="100" viewBox="0 0 100 100" fill="none" xmlns="http://www.w3.org/2000/svg">
<path fill-rule="evenodd" clip-rule="evenodd" d="M64.4493 37.6357C66.149 32.9196 60.527 28.9831 56.6767 32.1932C54.3768 34.1106 50.9116 33.5441 49.3422 30.994C46.7147 26.7248 40.1318 28.6658 40.2409 33.6776C40.3061 36.6712 37.7026 39.0272 34.7304 38.6642C29.7543 38.0566 27.1675 44.4136 31.1539 47.4531C33.5351 49.2686 33.7538 52.773 31.6169 54.8705C28.0393 58.3821 31.3965 64.3681 36.2584 63.1464C39.1624 62.4168 42.0387 64.4307 42.3462 67.4092C42.8612 72.3957 49.6343 73.5031 51.7106 68.9402C52.9507 66.2149 56.3186 65.2218 58.839 66.8384C63.0587 69.5448 68.1475 64.9398 65.8746 60.4717C64.517 57.8028 65.8405 54.5505 68.6758 53.5879C73.4227 51.9763 72.9952 45.1265 68.0847 44.1177C65.1517 43.5151 63.4341 40.4526 64.4493 37.6357ZM49.7824 55.5265C52.9548 55.5265 55.5265 52.9548 55.5265 49.7824C55.5265 46.61 52.9548 44.0382 49.7824 44.0382C46.61 44.0382 44.0383 46.61 44.0383 49.7824C44.0383 52.9548 46.61 55.5265 49.7824 55.5265Z" fill="url(#paint0_linear)"/>
<defs>
<linearGradient id="paint0_linear" x1="58.8773" y1="27.7633" x2="29.1994" y2="57.9199" gradientUnits="userSpaceOnUse">
<stop/>
<stop offset="0.0001" stop-color="#0C0C0C"/>
<stop offset="1" stop-color="#A4A4A4"/>
</linearGradient>
</defs>
</svg>
