<svg width="22" height="21" viewBox="0 0 22 21" fill="none" xmlns="http://www.w3.org/2000/svg">
<line x1="10.0004" y1="3.75" x2="22.0004" y2="3.75" stroke="black" stroke-width="0.5"/>
<line x1="10.0004" y1="10.75" x2="22.0004" y2="10.75" stroke="black" stroke-width="0.5"/>
<line x1="10.0004" y1="17.75" x2="22.0004" y2="17.75" stroke="black" stroke-width="0.5"/>
<path d="M3.67955 1.8V6H2.70755V2.58H1.86755V1.8H3.67955Z" fill="black"/>
<path d="M4.60282 12.208V13H1.42882V12.37L3.04882 10.84C3.22082 10.676 3.33682 10.536 3.39682 10.42C3.45682 10.3 3.48682 10.182 3.48682 10.066C3.48682 9.898 3.42882 9.77 3.31282 9.682C3.20082 9.59 3.03482 9.544 2.81482 9.544C2.63082 9.544 2.46482 9.58 2.31682 9.652C2.16882 9.72 2.04482 9.824 1.94482 9.964L1.23682 9.508C1.40082 9.264 1.62682 9.074 1.91482 8.938C2.20282 8.798 2.53282 8.728 2.90482 8.728C3.21682 8.728 3.48882 8.78 3.72082 8.884C3.95682 8.984 4.13882 9.128 4.26682 9.316C4.39882 9.5 4.46482 9.718 4.46482 9.97C4.46482 10.198 4.41682 10.412 4.32082 10.612C4.22482 10.812 4.03882 11.04 3.76282 11.296L2.79682 12.208H4.60282Z" fill="black"/>
<path d="M3.42096 17.51C3.78896 17.57 4.07096 17.708 4.26696 17.924C4.46296 18.136 4.56096 18.4 4.56096 18.716C4.56096 18.96 4.49696 19.186 4.36896 19.394C4.24096 19.598 4.04496 19.762 3.78096 19.886C3.52096 20.01 3.20096 20.072 2.82096 20.072C2.52496 20.072 2.23296 20.034 1.94496 19.958C1.66096 19.878 1.41896 19.766 1.21896 19.622L1.59696 18.878C1.75696 18.998 1.94096 19.092 2.14896 19.16C2.36096 19.224 2.57696 19.256 2.79696 19.256C3.04096 19.256 3.23296 19.21 3.37296 19.118C3.51296 19.022 3.58296 18.888 3.58296 18.716C3.58296 18.372 3.32096 18.2 2.79696 18.2H2.35296V17.558L3.21696 16.58H1.42896V15.8H4.36896V16.43L3.42096 17.51Z" fill="black"/>
</svg>