<svg width="20" height="19" viewBox="0 0 20 19" fill="none" xmlns="http://www.w3.org/2000/svg">
<path d="M5.00037 2.5C5.00037 3.88071 3.88108 5 2.50037 5C1.11965 5 0.000366211 3.88071 0.000366211 2.5C0.000366211 1.11929 1.11965 0 2.50037 0C3.88108 0 5.00037 1.11929 5.00037 2.5Z" fill="black"/>
<path d="M5.00037 9.5C5.00037 10.8807 3.88108 12 2.50037 12C1.11965 12 0.000366211 10.8807 0.000366211 9.5C0.000366211 8.11929 1.11965 7 2.50037 7C3.88108 7 5.00037 8.11929 5.00037 9.5Z" fill="black"/>
<path d="M5.00037 16.5C5.00037 17.8807 3.88108 19 2.50037 19C1.11965 19 0.000366211 17.8807 0.000366211 16.5C0.000366211 15.1193 1.11965 14 2.50037 14C3.88108 14 5.00037 15.1193 5.00037 16.5Z" fill="black"/>
<line x1="8" y1="2.75" x2="20" y2="2.75" stroke="black" stroke-width="0.5"/>
<line x1="8" y1="9.75" x2="20" y2="9.75" stroke="black" stroke-width="0.5"/>
<line x1="8" y1="16.75" x2="20" y2="16.75" stroke="black" stroke-width="0.5"/>
</svg>
